<svg xmlns="http://www.w3.org/2000/svg" xmlns:xlink="http://www.w3.org/1999/xlink" width="800" zoomAndPan="magnify" viewBox="0 0 600 599.999999" height="800" preserveAspectRatio="xMidYMid meet" version="1.0"><defs><g/><clipPath id="a14f1853d0"><rect x="0" width="489" y="0" height="600"/></clipPath></defs><g transform="matrix(1, 0, 0, 1, 61, -0.000000000000034788)"><g clip-path="url(#a14f1853d0)"><g fill="#ffffff" fill-opacity="1"><g transform="translate(31.160047, 487.025662)"><g><path d="M -27.796875 0 L 63.953125 -398.03125 L 145.96875 -398.03125 L 138.546875 -207.578125 L 182.5625 -398.03125 L 259.484375 -398.03125 L 167.734375 0 L 89.890625 0 L 95.921875 -199.25 L 50.046875 0 Z M -27.796875 0 "/></g></g></g><g fill="#facc15" fill-opacity="1"><g transform="translate(261.912727, 487.025662)"><g><path d="M -27.796875 0 L 63.953125 -398.03125 L 223.34375 -398.03125 L 205.734375 -320.640625 L 126.5 -320.640625 L 111.671875 -257.171875 L 186.734375 -257.171875 L 169.125 -180.703125 L 94.0625 -180.703125 L 52.359375 0 Z M -27.796875 0 "/></g></g></g></g></g></svg>