<svg xmlns="http://www.w3.org/2000/svg" xmlns:xlink="http://www.w3.org/1999/xlink" width="800" zoomAndPan="magnify" viewBox="0 0 600 599.999999" height="800" preserveAspectRatio="xMidYMid meet" version="1.0"><defs><g/><clipPath id="4439726299"><path d="M 6.449219 6.449219 L 593.550781 6.449219 L 593.550781 593.550781 L 6.449219 593.550781 Z M 6.449219 6.449219 " clip-rule="nonzero"/></clipPath><clipPath id="cbf0e1606a"><path d="M 300 6.449219 C 137.875 6.449219 6.449219 137.875 6.449219 300 C 6.449219 462.125 137.875 593.550781 300 593.550781 C 462.125 593.550781 593.550781 462.125 593.550781 300 C 593.550781 137.875 462.125 6.449219 300 6.449219 Z M 300 6.449219 " clip-rule="nonzero"/></clipPath><clipPath id="e860e3e9c3"><path d="M 0.449219 0.449219 L 587.550781 0.449219 L 587.550781 587.550781 L 0.449219 587.550781 Z M 0.449219 0.449219 " clip-rule="nonzero"/></clipPath><clipPath id="7930fb24cc"><path d="M 294 0.449219 C 131.875 0.449219 0.449219 131.875 0.449219 294 C 0.449219 456.125 131.875 587.550781 294 587.550781 C 456.125 587.550781 587.550781 456.125 587.550781 294 C 587.550781 131.875 456.125 0.449219 294 0.449219 Z M 294 0.449219 " clip-rule="nonzero"/></clipPath><clipPath id="d1c168067b"><rect x="0" width="588" y="0" height="588"/></clipPath><clipPath id="d428fcd4eb"><rect x="0" width="320" y="0" height="446"/></clipPath><clipPath id="08bf049593"><path d="M 35.679688 35.679688 L 564.3125 35.679688 L 564.3125 564.3125 L 35.679688 564.3125 Z M 35.679688 35.679688 " clip-rule="nonzero"/></clipPath><clipPath id="ef919b32e0"><path d="M 299.996094 35.679688 C 154.015625 35.679688 35.679688 154.015625 35.679688 299.996094 C 35.679688 445.972656 154.015625 564.3125 299.996094 564.3125 C 445.972656 564.3125 564.3125 445.972656 564.3125 299.996094 C 564.3125 154.015625 445.972656 35.679688 299.996094 35.679688 Z M 299.996094 35.679688 " clip-rule="nonzero"/></clipPath></defs><g clip-path="url(#4439726299)"><g clip-path="url(#cbf0e1606a)"><g transform="matrix(1, 0, 0, 1, 6, 6)"><g clip-path="url(#d1c168067b)"><g clip-path="url(#e860e3e9c3)"><g clip-path="url(#7930fb24cc)"><path fill="#1a2533" d="M 0.449219 0.449219 L 587.550781 0.449219 L 587.550781 587.550781 L 0.449219 587.550781 Z M 0.449219 0.449219 " fill-opacity="1" fill-rule="nonzero"/></g></g></g></g></g></g><g transform="matrix(1, 0, 0, 1, 143, 77)"><g clip-path="url(#d428fcd4eb)"><g fill="#ffffff" fill-opacity="1"><g transform="translate(21.011179, 345.370072)"><g><path d="M -18.203125 0 L 41.828125 -260.421875 L 95.5 -260.421875 L 90.640625 -135.828125 L 119.4375 -260.421875 L 169.765625 -260.421875 L 109.734375 0 L 58.8125 0 L 62.75 -130.359375 L 32.734375 0 Z M -18.203125 0 "/></g></g></g><g fill="#facc15" fill-opacity="1"><g transform="translate(171.99166, 345.370072)"><g><path d="M -18.203125 0 L 41.828125 -260.421875 L 146.125 -260.421875 L 134.609375 -209.796875 L 82.765625 -209.796875 L 73.0625 -168.265625 L 122.171875 -168.265625 L 110.65625 -118.234375 L 61.53125 -118.234375 L 34.25 0 Z M -18.203125 0 "/></g></g></g></g></g><g clip-path="url(#08bf049593)"><g clip-path="url(#ef919b32e0)"><path stroke-linecap="butt" transform="matrix(0.75, 0, 0, 0.75, 35.677894, 35.677914)" fill="none" stroke-linejoin="miter" d="M 352.424281 0.00236467 C 157.783648 0.00236467 0.00239094 157.783621 0.00239094 352.424255 C 0.00239094 547.05968 157.783648 704.846145 352.424281 704.846145 C 547.059706 704.846145 704.846171 547.05968 704.846171 352.424255 C 704.846171 157.783621 547.059706 0.00236467 352.424281 0.00236467 Z M 352.424281 0.00236467 " stroke="#ffffff" stroke-width="64" stroke-opacity="1" stroke-miterlimit="4"/></g></g></svg>